<svg width="49" height="49" viewBox="0 0 49 49" fill="none" xmlns="http://www.w3.org/2000/svg">
<rect x="0.0400391" y="0.580078" width="48.04" height="48.04" rx="24.02" fill="white" fill-opacity="0.1"/>
<rect x="0.665039" y="1.20508" width="46.79" height="46.79" rx="23.395" stroke="white" stroke-opacity="0.24" stroke-width="1.25"/>
<g clip-path="url(#clip0_279_1495)">
<path d="M24.06 13.0801C17.6978 13.0801 12.54 18.2378 12.54 24.6001C12.54 30.0025 16.2596 34.5359 21.2773 35.7809V28.1206H18.9018V24.6001H21.2773V23.0831C21.2773 19.1622 23.0518 17.3448 26.9013 17.3448C27.6312 17.3448 28.8906 17.4881 29.4058 17.6309V20.822C29.1339 20.7934 28.6616 20.7791 28.075 20.7791C26.1862 20.7791 25.4563 21.4947 25.4563 23.355V24.6001H29.2192L28.5727 28.1206H25.4563V36.0358C31.1605 35.3469 35.5805 30.49 35.5805 24.6001C35.58 18.2378 30.4223 13.0801 24.06 13.0801Z" fill="#A9251F"/>
</g>
<defs>
<clipPath id="clip0_279_1495">
<rect width="23.04" height="23.04" fill="white" transform="translate(12.54 13.0801)"/>
</clipPath>
</defs>
</svg>
