<svg width="49" height="49" viewBox="0 0 49 49" fill="none" xmlns="http://www.w3.org/2000/svg">
<rect y="0.580078" width="48.04" height="48.04" rx="24.02" fill="white" fill-opacity="0.1"/>
<rect x="0.625" y="1.20508" width="46.79" height="46.79" rx="23.395" stroke="white" stroke-opacity="0.24" stroke-width="1.25"/>
<g clip-path="url(#clip0_279_1493)">
<path d="M24.02 15.1546C27.098 15.1546 27.4625 15.1681 28.673 15.2221C29.798 15.2716 30.4055 15.4606 30.8105 15.6181C31.346 15.8251 31.733 16.0771 32.1335 16.4776C32.5385 16.8826 32.786 17.2651 32.993 17.8006C33.1505 18.2056 33.3395 18.8176 33.389 19.9381C33.443 21.1531 33.4565 21.5176 33.4565 24.5911C33.4565 27.6691 33.443 28.0336 33.389 29.2441C33.3395 30.3691 33.1505 30.9766 32.993 31.3816C32.786 31.9171 32.534 32.3041 32.1335 32.7046C31.7285 33.1096 31.346 33.3571 30.8105 33.5641C30.4055 33.7216 29.7935 33.9106 28.673 33.9601C27.458 34.0141 27.0935 34.0276 24.02 34.0276C20.942 34.0276 20.5775 34.0141 19.367 33.9601C18.242 33.9106 17.6345 33.7216 17.2295 33.5641C16.694 33.3571 16.307 33.1051 15.9065 32.7046C15.5015 32.2996 15.254 31.9171 15.047 31.3816C14.8895 30.9766 14.7005 30.3646 14.651 29.2441C14.597 28.0291 14.5835 27.6646 14.5835 24.5911C14.5835 21.5131 14.597 21.1486 14.651 19.9381C14.7005 18.8131 14.8895 18.2056 15.047 17.8006C15.254 17.2651 15.506 16.8781 15.9065 16.4776C16.3115 16.0726 16.694 15.8251 17.2295 15.6181C17.6345 15.4606 18.2465 15.2716 19.367 15.2221C20.5775 15.1681 20.942 15.1546 24.02 15.1546ZM24.02 13.0801C20.8925 13.0801 20.501 13.0936 19.2725 13.1476C18.0485 13.2016 17.207 13.3996 16.478 13.6831C15.7175 13.9801 15.074 14.3716 14.435 15.0151C13.7915 15.6541 13.4 16.2976 13.103 17.0536C12.8195 17.7871 12.6215 18.6241 12.5675 19.8481C12.5135 21.0811 12.5 21.4726 12.5 24.6001C12.5 27.7276 12.5135 28.1191 12.5675 29.3476C12.6215 30.5716 12.8195 31.4131 13.103 32.1421C13.4 32.9026 13.7915 33.5461 14.435 34.1851C15.074 34.8241 15.7175 35.2201 16.4735 35.5126C17.207 35.7961 18.044 35.9941 19.268 36.0481C20.4965 36.1021 20.888 36.1156 24.0155 36.1156C27.143 36.1156 27.5345 36.1021 28.763 36.0481C29.987 35.9941 30.8285 35.7961 31.5575 35.5126C32.3135 35.2201 32.957 34.8241 33.596 34.1851C34.235 33.5461 34.631 32.9026 34.9235 32.1466C35.207 31.4131 35.405 30.5761 35.459 29.3521C35.513 28.1236 35.5265 27.7321 35.5265 24.6046C35.5265 21.4771 35.513 21.0856 35.459 19.8571C35.405 18.6331 35.207 17.7916 34.9235 17.0626C34.64 16.2976 34.2485 15.6541 33.605 15.0151C32.966 14.3761 32.3225 13.9801 31.5665 13.6876C30.833 13.4041 29.996 13.2061 28.772 13.1521C27.539 13.0936 27.1475 13.0801 24.02 13.0801Z" fill="#A9251F"/>
<path d="M24.02 18.6826C20.753 18.6826 18.1025 21.3331 18.1025 24.6001C18.1025 27.8671 20.753 30.5176 24.02 30.5176C27.287 30.5176 29.9375 27.8671 29.9375 24.6001C29.9375 21.3331 27.287 18.6826 24.02 18.6826ZM24.02 28.4386C21.9005 28.4386 20.1815 26.7196 20.1815 24.6001C20.1815 22.4806 21.9005 20.7616 24.02 20.7616C26.1395 20.7616 27.8585 22.4806 27.8585 24.6001C27.8585 26.7196 26.1395 28.4386 24.02 28.4386Z" fill="#A9251F"/>
<path d="M31.553 18.4486C31.553 19.2136 30.932 19.8301 30.1715 19.8301C29.4065 19.8301 28.79 19.2091 28.79 18.4486C28.79 17.6836 29.411 17.0671 30.1715 17.0671C30.932 17.0671 31.553 17.6881 31.553 18.4486Z" fill="#A9251F"/>
</g>
<defs>
<clipPath id="clip0_279_1493">
<rect width="23.04" height="23.04" fill="white" transform="translate(12.5 13.0801)"/>
</clipPath>
</defs>
</svg>
