<svg width="49" height="49" viewBox="0 0 49 49" fill="none" xmlns="http://www.w3.org/2000/svg">
<rect x="0.0800781" y="0.580078" width="48.04" height="48.04" rx="24.02" fill="white" fill-opacity="0.1"/>
<rect x="0.705078" y="1.20508" width="46.79" height="46.79" rx="23.395" stroke="white" stroke-opacity="0.24" stroke-width="1.25"/>
<g clip-path="url(#clip0_279_1497)">
<path d="M33.9146 13.0801H14.2811C13.3406 13.0801 12.5801 13.8226 12.5801 14.7406V34.4551C12.5801 35.3731 13.3406 36.1201 14.2811 36.1201H33.9146C34.8551 36.1201 35.6201 35.3731 35.6201 34.4596V14.7406C35.6201 13.8226 34.8551 13.0801 33.9146 13.0801ZM19.4156 32.7136H15.9956V21.7156H19.4156V32.7136ZM17.7056 20.2171C16.6076 20.2171 15.7211 19.3306 15.7211 18.2371C15.7211 17.1436 16.6076 16.2571 17.7056 16.2571C18.7991 16.2571 19.6856 17.1436 19.6856 18.2371C19.6856 19.3261 18.7991 20.2171 17.7056 20.2171ZM32.2136 32.7136H28.7981V27.3676C28.7981 26.0941 28.7756 24.4516 27.0206 24.4516C25.2431 24.4516 24.9731 25.8421 24.9731 27.2776V32.7136H21.5621V21.7156H24.8381V23.2186H24.8831C25.3376 22.3546 26.4536 21.4411 28.1141 21.4411C31.5746 21.4411 32.2136 23.7181 32.2136 26.6791V32.7136Z" fill="#A9251F"/>
</g>
<defs>
<clipPath id="clip0_279_1497">
<rect width="23.04" height="23.04" fill="white" transform="translate(12.5801 13.0801)"/>
</clipPath>
</defs>
</svg>
