<svg width="49" height="49" viewBox="0 0 49 49" fill="none" xmlns="http://www.w3.org/2000/svg">
<rect x="0.120117" y="0.580078" width="48.04" height="48.04" rx="24.02" fill="white" fill-opacity="0.1"/>
<rect x="0.745117" y="1.20508" width="46.79" height="46.79" rx="23.395" stroke="white" stroke-opacity="0.24" stroke-width="1.25"/>
<path d="M24.1049 13.0801C17.7622 13.0801 12.6201 18.222 12.6201 24.5647C12.6201 30.9077 17.7622 36.0492 24.1049 36.0492C30.4483 36.0492 35.5898 30.9077 35.5898 24.5647C35.5898 18.2224 30.4483 13.0806 24.1047 13.0806L24.1049 13.0801ZM29.3717 29.6442C29.166 29.9816 28.7244 30.0885 28.387 29.8815C25.6905 28.2344 22.296 27.8613 18.2982 28.7747C17.913 28.8625 17.529 28.6211 17.4412 28.2357C17.3531 27.8504 17.5935 27.4664 17.9797 27.3786C22.3545 26.3787 26.1072 26.8095 29.1344 28.6595C29.4718 28.8666 29.5788 29.3068 29.3717 29.6442ZM30.7774 26.5167C30.5182 26.9384 29.9669 27.0714 29.5459 26.8122C26.4588 24.9143 21.753 24.3647 18.1016 25.4731C17.628 25.6162 17.1279 25.3493 16.9841 24.8766C16.8415 24.403 17.1085 23.9038 17.5813 23.7598C21.7522 22.4943 26.9374 23.1073 30.4826 25.2858C30.9036 25.545 31.0366 26.0962 30.7774 26.5167ZM30.8981 23.2603C27.1966 21.0618 21.0896 20.8596 17.5556 21.9322C16.9881 22.1044 16.388 21.784 16.216 21.2165C16.044 20.6487 16.3641 20.049 16.932 19.8765C20.9888 18.6449 27.7328 18.8829 31.9944 21.4127C32.506 21.7157 32.6733 22.3749 32.3702 22.8847C32.0685 23.3951 31.4075 23.5634 30.8987 23.2603H30.8981Z" fill="#A9251F"/>
</svg>
