<svg width="49" height="49" viewBox="0 0 49 49" fill="none" xmlns="http://www.w3.org/2000/svg">
<rect x="0.159912" y="0.580078" width="48.04" height="48.04" rx="24.02" fill="white" fill-opacity="0.1"/>
<rect x="0.784912" y="1.20508" width="46.79" height="46.79" rx="23.395" stroke="white" stroke-opacity="0.24" stroke-width="1.25"/>
<g clip-path="url(#clip0_279_1501)">
<path d="M35.4704 19.9921C35.4704 19.9921 35.2454 18.4036 34.5524 17.7061C33.6749 16.7881 32.6939 16.7836 32.2439 16.7296C29.0219 16.4956 24.1844 16.4956 24.1844 16.4956H24.1754C24.1754 16.4956 19.3379 16.4956 16.1159 16.7296C15.6659 16.7836 14.6849 16.7881 13.8074 17.7061C13.1144 18.4036 12.8939 19.9921 12.8939 19.9921C12.8939 19.9921 12.6599 21.8596 12.6599 23.7226V25.4686C12.6599 27.3316 12.8894 29.1991 12.8894 29.1991C12.8894 29.1991 13.1144 30.7876 13.8029 31.4851C14.6804 32.4031 15.8324 32.3716 16.3454 32.4706C18.1904 32.6461 24.1799 32.7001 24.1799 32.7001C24.1799 32.7001 29.0219 32.6911 32.2439 32.4616C32.6939 32.4076 33.6749 32.4031 34.5524 31.4851C35.2454 30.7876 35.4704 29.1991 35.4704 29.1991C35.4704 29.1991 35.6999 27.3361 35.6999 25.4686V23.7226C35.6999 21.8596 35.4704 19.9921 35.4704 19.9921ZM21.7994 27.5881V21.1126L28.0229 24.3616L21.7994 27.5881Z" fill="#A9251F"/>
</g>
<defs>
<clipPath id="clip0_279_1501">
<rect width="23.04" height="23.04" fill="white" transform="translate(12.6599 13.0801)"/>
</clipPath>
</defs>
</svg>
